<svg xmlns="http://www.w3.org/2000/svg" width="143" height="18" viewBox="0 0 143 18">
  <g fill="none" transform="translate(.345 .887)">
    <path fill="#00E5FF" stroke="#FFF" stroke-width="1.711" d="M81.6451127,12.8093037 L76.138182,15.9922789 C75.8678066,16.1485544 75.5659955,16.2266921 75.2641843,16.2266921 C74.9623731,16.2266921 74.6605619,16.1485544 74.3901865,15.9922789 L68.8832558,12.8093037 C68.3432878,12.4972052 68.0107189,11.9208576 68.0107189,11.2971823 L68.0107189,4.92950991 C68.0107189,4.30583454 68.3432878,3.729487 68.8832558,3.41738849 L74.3901865,0.234413222 C74.7369614,0.0339793019 75.1354474,-0.0379195621 75.5193215,0.0187166399 L81.6375181,3.41302409 C82.1819607,3.72409354 82.5176496,4.3029158 82.5176496,4.92950991 L82.5176496,11.2971823 C82.5176496,11.9208576 82.1850808,12.4972052 81.6451127,12.8093037 Z"/>
    <path fill="#490000" d="M69.0565482,11.8476986 L78.4888117,13.6454612 L75.7101015,15.251648 C75.4342082,15.4111128 75.0941604,15.4111128 74.8182671,15.251648 L69.3113364,12.0686728 C69.2114962,12.0109657 69.1255536,11.9355518 69.0565482,11.8476986 Z"/>
    <path fill="#790239" d="M81.2170322,12.0686728 L78.4889301,13.6455005 L69.0565157,11.8476573 C69.0472049,11.8358018 69.0382024,11.8237199 69.0295158,11.8114245 L81.4988673,11.8114039 C81.4257951,11.9148405 81.3303679,12.0031654 81.2170322,12.0686728 Z"/>
    <path fill="#DD2C00" d="M81.6622041,11.2971823 C81.6622041,11.4844652 81.6034258,11.6633835 81.4988897,11.8113721 L69.0294788,11.8113721 L69.0204187,11.7983 L69.0204187,11.7983 L69.0117813,11.7853562 L81.6622041,9.52385346 L81.6622041,11.2971823 Z"/>
    <polygon fill="#FF6D00" points="81.662 9.524 69.011 11.785 69.004 11.773 69.004 11.773 68.997 11.762 81.662 6.999"/>
    <path fill="#FFAB00" d="M81.5379169,4.4755775 L81.5412417,4.48124133 C81.6191637,4.61511307 81.6622041,4.76924896 81.6622041,4.92950991 L81.6622041,6.99968563 L68.9970944,11.7621536 C68.9930947,11.7556142 68.9891795,11.7490238 68.98535,11.742384 L81.5379169,4.4755775 Z"/>
    <path fill="#FFF" d="M79.6666635 3.26192079L81.2170322 4.15801939C81.3518138 4.23592239 81.4612681 4.34609506 81.5379169 4.4755775L68.9853475 11.7423798C68.9085499 11.6092242 68.8661645 11.4562192 68.8661645 11.2971823L68.8661645 11.1822416 79.6666635 3.26192079zM92.5947266 13.1133461L92.5947266 9.46979137 94.2285156 9.46979137 96.0947266 13.1133461 98.2958984 13.1133461 98.2958984 13.0176429 96.1425781 8.95026012C96.4160156 8.82721325 96.6621094 8.68137992 96.8808594 8.51276012 97.0996094 8.34414033 97.2864583 8.14703747 97.4414062 7.92145153 97.5963542 7.69586559 97.7148438 7.43837861 97.796875 7.14899059 97.8789062 6.85960257 97.9199219 6.5326169 97.9199219 6.16803356 97.9199219 5.67584606 97.835612 5.24290335 97.6669922 4.86920544 97.4983724 4.49550752 97.2568359 4.18219372 96.9423828 3.92926403 96.6279297 3.67633434 96.2428385 3.48492809 95.7871094 3.35504528 95.3313802 3.22516247 94.8164062 3.16022106 94.2421875 3.16022106L94.2421875 3.16022106 90.5439453 3.16022106 90.5439453 13.1133461 92.5947266 13.1133461zM94.2490234 7.80865856L92.5947266 7.80865856 92.5947266 4.82135387 94.2421875 4.82135387C94.7936198 4.82135387 95.2026367 4.95579398 95.4692383 5.22467419 95.7358398 5.4935544 95.8691406 5.86269502 95.8691406 6.33209606 95.8691406 6.55540335 95.8349609 6.75706351 95.7666016 6.93707653 95.6982422 7.11708955 95.5968424 7.27203747 95.4624023 7.40192028 95.3279622 7.53180309 95.1593424 7.63206351 94.956543 7.70270153 94.7537435 7.77333955 94.5179036 7.80865856 94.2490234 7.80865856L94.2490234 7.80865856zM106.150391 13.1133461L106.150391 11.4658851 101.529297 11.4658851 101.529297 8.7998695 105.466797 8.7998695 105.466797 7.19342419 101.529297 7.19342419 101.529297 4.82135387 106.136719 4.82135387 106.136719 3.16022106 99.4785156 3.16022106 99.4785156 13.1133461 106.150391 13.1133461zM109.404297 13.1133461L109.404297 9.60651012 111.236328 9.60651012C111.824219 9.60651012 112.349447 9.53245413 112.812012 9.38434216 113.274577 9.23623018 113.666504 9.02545544 113.987793 8.75201794 114.309082 8.47858044 114.554036 8.14817679 114.722656 7.760807 114.891276 7.37343721 114.975586 6.93821585 114.975586 6.45514294 114.975586 5.9811846 114.891276 5.54254528 114.722656 5.13922497 114.554036 4.73590466 114.309082 4.38727184 113.987793 4.09332653 113.666504 3.79938122 113.274577 3.57037731 112.812012 3.40631481 112.349447 3.24225231 111.824219 3.16022106 111.236328 3.16022106L111.236328 3.16022106 107.353516 3.16022106 107.353516 13.1133461 109.404297 13.1133461zM111.236328 7.94537731L109.404297 7.94537731 109.404297 4.82135387 111.236328 4.82135387C111.527995 4.82135387 111.779785 4.86692679 111.991699 4.95807262 112.203613 5.04921846 112.37679 5.17112601 112.51123 5.32379528 112.645671 5.47646455 112.744792 5.65192028 112.808594 5.85016247 112.872396 6.04840466 112.904297 6.2546221 112.904297 6.46881481 112.904297 6.68300752 112.872396 6.88124971 112.808594 7.06354137 112.744792 7.24583304 112.645671 7.40192028 112.51123 7.53180309 112.37679 7.66168591 112.203613 7.76308565 111.991699 7.83600231 111.779785 7.90891898 111.527995 7.94537731 111.236328 7.94537731L111.236328 7.94537731zM120.334961 13.2500648C120.95931 13.2500648 121.53125 13.1372718 122.050781 12.9116859 122.570312 12.6861 123.015788 12.3636716 123.387207 11.9444007 123.758626 11.5251299 124.046875 11.0135739 124.251953 10.4097328 124.457031 9.80589163 124.55957 9.12343721 124.55957 8.3623695L124.55957 8.3623695 124.55957 7.9248695C124.55957 7.16835908 124.455892 6.48704398 124.248535 5.88092419 124.041178 5.2748044 123.750651 4.75983044 123.376953 4.33600231 123.003255 3.91217419 122.556641 3.58746716 122.037109 3.36188122 121.517578 3.13629528 120.945638 3.02350231 120.321289 3.02350231 119.69694 3.02350231 119.125 3.13629528 118.605469 3.36188122 118.085938 3.58746716 117.639323 3.91217419 117.265625 4.33600231 116.891927 4.75983044 116.6014 5.2748044 116.394043 5.88092419 116.186686 6.48704398 116.083008 7.16835908 116.083008 7.9248695L116.083008 7.9248695 116.083008 8.3623695C116.083008 9.12343721 116.187826 9.80589163 116.397461 10.4097328 116.607096 11.0135739 116.899902 11.5251299 117.275879 11.9444007 117.651855 12.3636716 118.099609 12.6861 118.619141 12.9116859 119.138672 13.1372718 119.710612 13.2500648 120.334961 13.2500648zM120.334961 11.5684242C119.988607 11.5684242 119.68099 11.4989255 119.412109 11.3599281 119.143229 11.2209307 118.916504 11.0158526 118.731934 10.7446937 118.547363 10.4735349 118.406087 10.1385739 118.308105 9.73981091 118.210124 9.34104788 118.161133 8.88190075 118.161133 8.3623695L118.161133 8.3623695 118.161133 7.91119762C118.161133 6.86757783 118.347982 6.07460908 118.72168 5.53229137 119.095378 4.98997367 119.628581 4.71881481 120.321289 4.71881481 121.013997 4.71881481 121.547201 4.98997367 121.920898 5.53229137 122.294596 6.07460908 122.481445 6.86757783 122.481445 7.91119762L122.481445 7.91119762 122.481445 8.3623695C122.481445 9.40598929 122.296875 10.2012367 121.927734 10.7481117 121.558594 11.2949867 121.027669 11.5684242 120.334961 11.5684242zM128.100586 13.1133461L128.100586 9.46979137 129.734375 9.46979137 131.600586 13.1133461 133.801758 13.1133461 133.801758 13.0176429 131.648438 8.95026012C131.921875 8.82721325 132.167969 8.68137992 132.386719 8.51276012 132.605469 8.34414033 132.792318 8.14703747 132.947266 7.92145153 133.102214 7.69586559 133.220703 7.43837861 133.302734 7.14899059 133.384766 6.85960257 133.425781 6.5326169 133.425781 6.16803356 133.425781 5.67584606 133.341471 5.24290335 133.172852 4.86920544 133.004232 4.49550752 132.762695 4.18219372 132.448242 3.92926403 132.133789 3.67633434 131.748698 3.48492809 131.292969 3.35504528 130.83724 3.22516247 130.322266 3.16022106 129.748047 3.16022106L129.748047 3.16022106 126.049805 3.16022106 126.049805 13.1133461 128.100586 13.1133461zM129.754883 7.80865856L128.100586 7.80865856 128.100586 4.82135387 129.748047 4.82135387C130.299479 4.82135387 130.708496 4.95579398 130.975098 5.22467419 131.241699 5.4935544 131.375 5.86269502 131.375 6.33209606 131.375 6.55540335 131.34082 6.75706351 131.272461 6.93707653 131.204102 7.11708955 131.102702 7.27203747 130.968262 7.40192028 130.833822 7.53180309 130.665202 7.63206351 130.462402 7.70270153 130.259603 7.77333955 130.023763 7.80865856 129.754883 7.80865856L129.754883 7.80865856zM139.427734 13.1133461L139.427734 4.82135387 142.476562 4.82135387 142.476562 3.16022106 134.369141 3.16022106 134.369141 4.82135387 137.376953 4.82135387 137.376953 13.1133461 139.427734 13.1133461zM4.25195312 13.2500648C4.87630208 13.2500648 5.44824219 13.1372718 5.96777344 12.9116859 6.48730469 12.6861 6.93277995 12.3636716 7.30419922 11.9444007 7.67561849 11.5251299 7.96386719 11.0135739 8.16894531 10.4097328 8.37402344 9.80589163 8.4765625 9.12343721 8.4765625 8.3623695L8.4765625 8.3623695 8.4765625 7.9248695C8.4765625 7.16835908 8.37288411 6.48704398 8.16552734 5.88092419 7.95817057 5.2748044 7.66764323 4.75983044 7.29394531 4.33600231 6.9202474 3.91217419 6.47363281 3.58746716 5.95410156 3.36188122 5.43457031 3.13629528 4.86263021 3.02350231 4.23828125 3.02350231 3.61393229 3.02350231 3.04199219 3.13629528 2.52246094 3.36188122 2.00292969 3.58746716 1.5563151 3.91217419 1.18261719 4.33600231.808919271 4.75983044.518391927 5.2748044.311035156 5.88092419.103678385 6.48704398 0 7.16835908 0 7.9248695L0 7.9248695 0 8.3623695C0 9.12343721.104817708 9.80589163.314453125 10.4097328.524088542 11.0135739.816894531 11.5251299 1.19287109 11.9444007 1.56884766 12.3636716 2.01660156 12.6861 2.53613281 12.9116859 3.05566406 13.1372718 3.62760417 13.2500648 4.25195312 13.2500648zM4.25195312 11.5684242C3.90559896 11.5684242 3.59798177 11.4989255 3.32910156 11.3599281 3.06022135 11.2209307 2.83349609 11.0158526 2.64892578 10.7446937 2.46435547 10.4735349 2.32307943 10.1385739 2.22509766 9.73981091 2.12711589 9.34104788 2.078125 8.88190075 2.078125 8.3623695L2.078125 8.3623695 2.078125 7.91119762C2.078125 6.86757783 2.26497396 6.07460908 2.63867188 5.53229137 3.01236979 4.98997367 3.54557292 4.71881481 4.23828125 4.71881481 4.93098958 4.71881481 5.46419271 4.98997367 5.83789062 5.53229137 6.21158854 6.07460908 6.3984375 6.86757783 6.3984375 7.91119762L6.3984375 7.91119762 6.3984375 8.3623695C6.3984375 9.40598929 6.21386719 10.2012367 5.84472656 10.7481117 5.47558594 11.2949867 4.94466146 11.5684242 4.25195312 11.5684242zM12.0175781 13.1133461L12.0175781 9.46979137 13.6513672 9.46979137 15.5175781 13.1133461 17.71875 13.1133461 17.71875 13.0176429 15.5654297 8.95026012C15.8388672 8.82721325 16.0849609 8.68137992 16.3037109 8.51276012 16.5224609 8.34414033 16.7093099 8.14703747 16.8642578 7.92145153 17.0192057 7.69586559 17.1376953 7.43837861 17.2197266 7.14899059 17.3017578 6.85960257 17.3427734 6.5326169 17.3427734 6.16803356 17.3427734 5.67584606 17.2584635 5.24290335 17.0898438 4.86920544 16.921224 4.49550752 16.6796875 4.18219372 16.3652344 3.92926403 16.0507812 3.67633434 15.6656901 3.48492809 15.2099609 3.35504528 14.7542318 3.22516247 14.2392578 3.16022106 13.6650391 3.16022106L13.6650391 3.16022106 9.96679688 3.16022106 9.96679688 13.1133461 12.0175781 13.1133461zM13.671875 7.80865856L12.0175781 7.80865856 12.0175781 4.82135387 13.6650391 4.82135387C14.2164714 4.82135387 14.6254883 4.95579398 14.8920898 5.22467419 15.1586914 5.4935544 15.2919922 5.86269502 15.2919922 6.33209606 15.2919922 6.55540335 15.2578125 6.75706351 15.1894531 6.93707653 15.1210938 7.11708955 15.019694 7.27203747 14.8852539 7.40192028 14.7508138 7.53180309 14.582194 7.63206351 14.3793945 7.70270153 14.1765951 7.77333955 13.9407552 7.80865856 13.671875 7.80865856L13.671875 7.80865856zM20.2412109 13.1133461L20.9248047 11.0625648 24.5205078 11.0625648 25.2109375 13.1133461 27.3916016 13.1133461 23.6660156 3.16022106 21.765625 3.16022106 18.0605469 13.1133461 20.2412109 13.1133461zM23.9667969 9.401432L21.4785156 9.401432 22.7158203 5.67584606 23.9667969 9.401432zM32.1289062 13.2500648C32.7441406 13.2500648 33.2921549 13.1646156 33.7729492 12.9937172 34.2537435 12.8228187 34.6627604 12.5858396 35 12.2827797 35.3372396 11.9797198 35.6015625 11.6162757 35.7929688 11.1924476 35.984375 10.7686195 36.0983073 10.3037757 36.1347656 9.79791637L36.1347656 9.79791637 34.0839844 9.79791637C34.0611979 10.0941403 34.0065104 10.353906 33.9199219 10.5772132 33.8333333 10.8005205 33.7114258 10.9862302 33.5541992 11.1343422 33.3969727 11.2824541 33.2010091 11.3929685 32.9663086 11.4658851 32.7316081 11.5388018 32.452474 11.5752601 32.1289062 11.5752601 31.7643229 11.5752601 31.4532878 11.5103187 31.1958008 11.3804359 30.9383138 11.2505531 30.7286784 11.0557289 30.5668945 10.7959632 30.4051107 10.5361976 30.2866211 10.2126299 30.2114258 9.82526012 30.1362305 9.43789033 30.0986328 8.98671846 30.0986328 8.4717445L30.0986328 8.4717445 30.0986328 7.80182262C30.0986328 6.74453096 30.2683919 5.96409476 30.6079102 5.46051403 30.9474284 4.9569333 31.4635417 4.70514294 32.15625 4.70514294 32.4934896 4.70514294 32.780599 4.74501924 33.0175781 4.82477184 33.2545573 4.90452445 33.4482422 5.02187471 33.5986328 5.17682262 33.7490234 5.33177054 33.8640951 5.52317679 33.9438477 5.75104137 34.0236003 5.97890596 34.0748698 6.24095023 34.0976562 6.53717419L34.0976562 6.53717419 36.1484375 6.53717419C36.0983073 6.03131481 35.9798177 5.56305309 35.7929688 5.13238903 35.6061198 4.70172497 35.3463542 4.3303057 35.0136719 4.01813122 34.6809896 3.70595674 34.2765299 3.46214163 33.800293 3.28668591 33.324056 3.11123018 32.7760417 3.02350231 32.15625 3.02350231 31.5273438 3.02350231 30.9576823 3.13515596 30.4472656 3.35846325 29.936849 3.58177054 29.5027669 3.90078096 29.1450195 4.3154945 28.7872721 4.73020804 28.5104167 5.23378877 28.3144531 5.82623669 28.1184896 6.4186846 28.0205078 7.08177054 28.0205078 7.8154945L28.0205078 7.8154945 28.0205078 8.4717445C28.0205078 9.20546846 28.1150716 9.86741507 28.3041992 10.4575843 28.4933268 11.0477536 28.7644857 11.550195 29.1176758 11.9649086 29.4708659 12.3796221 29.9015299 12.6974932 30.409668 12.9185218 30.917806 13.1395505 31.4908854 13.2500648 32.1289062 13.2500648zM43.8867188 13.1133461L43.8867188 11.4658851 39.5322266 11.4658851 39.5322266 3.16022106 37.4814453 3.16022106 37.4814453 13.1133461 43.8867188 13.1133461zM51.734375 13.1133461L51.734375 11.4658851 47.1132812 11.4658851 47.1132812 8.7998695 51.0507812 8.7998695 51.0507812 7.19342419 47.1132812 7.19342419 47.1132812 4.82135387 51.7207031 4.82135387 51.7207031 3.16022106 45.0625 3.16022106 45.0625 13.1133461 51.734375 13.1133461zM56.546875 13.2500648C57.09375 13.2500648 57.5893555 13.1874021 58.0336914 13.0620765 58.4780273 12.936751 58.8574219 12.756738 59.171875 12.5220375 59.4863281 12.2873369 59.7290039 11.9990882 59.8999023 11.6572914 60.0708008 11.3154945 60.15625 10.9258461 60.15625 10.4883461 60.15625 10.0781898 60.085612 9.71132783 59.9443359 9.38776012 59.8030599 9.06419242 59.5945638 8.77252575 59.3188477 8.51276012 59.0431315 8.2529945 58.699056 8.02057262 58.2866211 7.8154945 57.8741862 7.61041637 57.3968099 7.42356742 56.8544922 7.25494762 56.2073568 7.06354137 55.7163086 6.85732393 55.3813477 6.63629528 55.0463867 6.41526663 54.8789062 6.14068981 54.8789062 5.81256481 54.8789062 5.6530596 54.9119466 5.50266898 54.9780273 5.36139294 55.0441081 5.2201169 55.1420898 5.09707002 55.2719727 4.99225231 55.4018555 4.8874346 55.565918 4.80540335 55.7641602 4.74615856 55.9624023 4.68691377 56.1959635 4.65729137 56.4648438 4.65729137 56.7428385 4.65729137 56.984375 4.69261038 57.1894531 4.76324841 57.3945312 4.83388643 57.5654297 4.93300752 57.7021484 5.06061169 57.8388672 5.18821585 57.9402669 5.34088512 58.0063477 5.5186195 58.0724284 5.69635387 58.1054688 5.89003877 58.1054688 6.09967419L58.1054688 6.09967419 60.15625 6.09967419C60.15625 5.6530596 60.0696615 5.24176403 59.8964844 4.86578747 59.7233073 4.48981091 59.4772135 4.16510387 59.1582031 3.89166637 58.8391927 3.61822887 58.4541016 3.40517549 58.0029297 3.25250622 57.5517578 3.09983695 57.0504557 3.02350231 56.4990234 3.02350231 55.961263 3.02350231 55.4679362 3.09072236 55.019043 3.22516247 54.5701497 3.35960257 54.1827799 3.54759085 53.8569336 3.78912731 53.5310872 4.03066377 53.2781576 4.32346976 53.0981445 4.66754528 52.9181315 5.0116208 52.828125 5.39101533 52.828125 5.80572887 52.828125 6.23867158 52.9158529 6.61692679 53.0913086 6.9404945 53.2667643 7.26406221 53.5060221 7.55003226 53.809082 7.79840466 54.1121419 8.04677705 54.465332 8.26210908 54.8686523 8.44440075 55.2719727 8.62669242 55.7014974 8.79075492 56.1572266 8.93658825 56.5582682 9.06419242 56.8852539 9.18496065 57.1381836 9.29889294 57.3911133 9.41282523 57.5893555 9.52903617 57.7329102 9.64752575 57.8764648 9.76601533 57.9733073 9.89475882 58.0234375 10.0337562 58.0735677 10.1727536 58.0986328 10.3288409 58.0986328 10.5020179 58.0986328 10.6615231 58.0678711 10.8107744 58.0063477 10.9497718 57.9448242 11.0887692 57.8502604 11.2083981 57.7226562 11.3086586 57.5950521 11.408919 57.4332682 11.4875323 57.2373047 11.5444984 57.0413411 11.6014646 56.8111979 11.6299476 56.546875 11.6299476 56.250651 11.6299476 55.9817708 11.6003252 55.7402344 11.5410804 55.4986979 11.4818356 55.2924805 11.3872718 55.121582 11.257389 54.9506836 11.1275062 54.8173828 10.9577471 54.7216797 10.7481117 54.6259766 10.5384763 54.578125 10.2832679 54.578125 9.98248669L54.578125 9.98248669 52.5205078 9.98248669C52.5205078 10.3561846 52.574056 10.6968422 52.6811523 11.0044593 52.7882487 11.3120765 52.9363607 11.5866534 53.1254883 11.8281898 53.3146159 12.0697263 53.5367839 12.2793617 53.7919922 12.4570961 54.0472005 12.6348304 54.324056 12.7829424 54.6225586 12.901432 54.9210612 13.0199216 55.234375 13.1076494 55.5625 13.1646156 55.890625 13.2215817 56.21875 13.2500648 56.546875 13.2500648z"/>
  </g>
</svg>
